<?xml version="1.0" standalone="no"?>
<!DOCTYPE svg PUBLIC "-//W3C//DTD SVG 20010904//EN"
 "http://www.w3.org/TR/2001/REC-SVG-20010904/DTD/svg10.dtd">
<svg version="1.0" xmlns="http://www.w3.org/2000/svg"
 width="192.000000pt" height="192.000000pt" viewBox="0 0 192.000000 192.000000"
 preserveAspectRatio="xMidYMid meet">
<metadata>
Created by potrace 1.11, written by Peter Selinger 2001-2013
</metadata>
<g transform="translate(0.000000,192.000000) scale(0.100000,-0.100000)"
fill="#000000" stroke="none">
<path d="M1319 1906 c-25 -7 -70 -26 -99 -42 -58 -32 -187 -148 -235 -212
l-30 -40 -116 112 c-126 123 -184 159 -285 177 -149 26 -298 -51 -320 -166 -3
-17 0 -51 6 -75 15 -55 100 -141 185 -187 l60 -32 -242 -1 -243 0 0 -720 0
-720 960 0 960 0 -2 717 -3 718 -255 5 -255 5 85 43 c140 70 190 128 190 219
0 60 -15 95 -57 135 -67 64 -205 93 -304 64z m136 -107 c146 -40 100 -167 -87
-239 -87 -34 -239 -70 -296 -70 l-33 0 23 42 c32 59 184 210 238 238 37 19 72
32 110 39 3 0 23 -4 45 -10z m-897 -17 c60 -23 122 -65 195 -132 51 -47 117
-132 117 -152 0 -15 -116 -8 -196 12 -97 24 -229 88 -268 129 -42 44 -41 93 2
132 39 35 80 37 150 11z m182 -471 c0 -19 -41 -59 -84 -82 -25 -13 -46 -27
-46 -32 0 -11 45 -81 62 -94 11 -10 23 -8 57 9 37 18 70 50 140 138 l20 25 1
-73 0 -73 68 3 67 3 3 78 3 78 59 -53 c32 -29 79 -64 104 -78 l46 -24 40 39
c22 21 40 43 40 47 0 4 -16 14 -36 23 -44 18 -94 53 -94 66 0 5 117 9 290 9
l290 0 0 -600 0 -600 -370 0 -370 0 0 83 0 82 -72 0 -73 0 -3 -82 -3 -83 -364
0 -365 0 0 600 0 600 295 0 c162 0 295 -4 295 -9z"/>
</g>
</svg>
